#!OML:ASF H:\ManfredETheater\Project 1\Capture day 1\Session 1\subject.ASF
:FULLY-SPECIFIED
:DEGREES
93
root 8.26641 25.6612 2.69704 -188.11 -36.8249 195.607
lowerback 33.5419 -0.532685 5.37038
upperback 7.27132 -0.0692314 5.32629
thorax -9.0351 -0.901641 2.93193
lowerneck -9.42411 -5.25143 -6.35749
upperneck 17.8023 -7.34083 4.04774
head 7.39829 -3.71785 1.66061
rclavicle 3.46879e-014 -1.63003e-014
rhumerus -13.9246 -4.0779 -62.2211
rradius 40.3865
rwrist 2.88511
rhand -22.7055 -0.0153114
rfingers 7.12502
rthumb 3.72748 -29.9625
lclavicle 3.46879e-014 -1.63003e-014
lhumerus -20.8272 15.1434 61.4054
lradius 47.1876
lwrist 0.0347929
lhand -20.9511 -9.89351
lfingers 7.12502
lthumb 5.4216 20.0171
rfemur -68.2119 -12.262 26.8018
rtibia 65.1978
rfoot -14.3519 -8.99069
rtoes -26.2177
lfemur -72.5358 10.7009 -24.858
ltibia 116.495
lfoot -4.25868 -10.1727
ltoes -0.717697
94
root 8.18779 25.6913 2.31657 -188.003 -37.498 195.639
lowerback 33.9559 -0.551744 5.45152
upperback 7.35459 -0.0662278 5.31615
thorax -9.09721 -0.913889 2.88724
lowerneck -9.36837 -5.38994 -6.76904
upperneck 17.2789 -7.45924 4.33601
head 7.25258 -3.7636 1.81523
rclavicle -9.66093e-014 5.76476e-015
rhumerus -14.8332 -3.54286 -61.8097
rradius 41.7727
rwrist 2.85247
rhand -22.8372 0.197639
rfingers 7.12502
rthumb 3.60028 -29.7517
lclavicle -9.66093e-014 5.76476e-015
lhumerus -22.7852 16.0298 60.323
lradius 48.614
lwrist 2.36913
lhand -21.4695 -9.03775
lfingers 7.12502
lthumb 4.92098 20.8851
rfemur -67.7701 -12.3714 26.3348
rtibia 65.1874
rfoot -14.2273 -9.21365
rtoes -25.8432
lfemur -74.7996 9.81626 -25.8306
ltibia 115.269
lfoot -4.94685 -10.1148
ltoes -0.872421
95
root 8.1046 25.7121 1.93509 -187.844 -38.0794 195.574
lowerback 34.3474 -0.527307 5.46664
upperback 7.4425 -0.0327294 5.28936
thorax -9.14636 -0.909855 2.84737
lowerneck -9.31937 -5.53222 -7.14603
upperneck 16.7597 -7.58047 4.57303
head 7.10782 -3.81313 1.94657
rclavicle 4.32357e-014 -1.25234e-014
rhumerus -15.7201 -3.02582 -61.1836
rradius 43.2732
rwrist 2.8977
rhand -23.0394 0.34586
rfingers 7.12502
rthumb 3.40501 -29.6067
lclavicle 4.32357e-014 -1.25234e-014
lhumerus -24.793 16.7602 59.0975
lradius 50.3316
lwrist 5.67893
lhand -21.9425 -8.14978
lfingers 7.12502
lthumb 4.4643 21.7832
rfemur -67.2894 -12.4025 25.7916
rtibia 65.141
rfoot -14.1228 -9.41373
rtoes -25.616
lfemur -76.68 9.06754 -26.7301
ltibia 113.629
lfoot -5.58659 -10.3395
ltoes -1.14034
96
root 8.01796 25.7224 1.55261 -187.666 -38.5481 195.49
lowerback 34.7099 -0.461556 5.46753
upperback 7.52589 0.0471637 5.25686
thorax -9.18922 -0.883233 2.79034
lowerneck -9.27845 -5.6809 -7.48745
upperneck 16.2664 -7.71301 4.77137
head 6.97205 -3.86975 2.05765
rclavicle -1.11319e-013 3.06128e-014
rhumerus -16.6005 -2.56392 -60.3584
rradius 44.8628
rwrist 2.95161
rhand -23.3377 0.385104
rfingers 7.12502
rthumb 3.11702 -29.5719
lclavicle -1.11319e-013 3.06128e-014
lhumerus -26.8027 17.3713 57.7108
lradius 52.1895
lwrist 9.42438
lhand -22.3878 -7.32747
lfingers 7.12502
lthumb 4.03425 22.6141
rfemur -66.7828 -12.3266 25.2498
rtibia 65.0403
rfoot -14.0662 -9.61179
rtoes -25.413
lfemur -78.2386 8.51411 -27.4968
ltibia 111.647
lfoot -6.17567 -10.845
ltoes -1.44304
97
root 7.92816 25.7215 1.16943 -187.466 -38.9141 195.398
lowerback 35.0322 -0.363299 5.47559
upperback 7.59524 0.17134 5.20869
thorax -9.23159 -0.834141 2.69457
lowerneck -9.23591 -5.83784 -7.77548
upperneck 15.8106 -7.86594 4.94027
head 6.84725 -3.93649 2.14805
rclavicle 1.98785e-015 5.59579e-014
rhumerus -17.4851 -2.18287 -59.3481
rradius 46.5009
rwrist 2.93723
rhand -23.7573 0.310848
rfingers 7.12502
rthumb 2.71177 -29.6517
lclavicle 1.98785e-015 5.59579e-014
lhumerus -28.7693 17.8831 56.1364
lradius 54.0189
lwrist 13.0174
lhand -22.8066 -6.59977
lfingers 7.12502
lthumb 3.62986 23.3491
rfemur -66.2692 -12.1617 24.7276
rtibia 64.8791
rfoot -14.0471 -9.81214
rtoes -25.2338
lfemur -79.5145 8.13985 -28.1382
ltibia 109.386
lfoot -6.71667 -11.5768
ltoes -1.72907
98
root 7.83578 25.7084 0.785447 -187.261 -39.1884 195.334
lowerback 35.3016 -0.239096 5.51998
upperback 7.64532 0.342659 5.14427
thorax -9.27352 -0.761143 2.54254
lowerneck -9.18746 -6.00469 -8.001
upperneck 15.399 -8.04576 5.09211
head 6.73516 -4.01527 2.21989
rclavicle -2.83268e-014 5.50634e-014
rhumerus -18.3883 -1.91418 -58.1674
rradius 48.1582
rwrist 2.78686
rhand -24.2434 0.100784
rfingers 7.12502
rthumb 2.24233 -29.8672
lclavicle -2.83268e-014 5.50634e-014
lhumerus -30.6488 18.2833 54.3669
lradius 55.6776
lwrist 15.9767
lhand -23.1881 -5.95488
lfingers 7.12502
lthumb 3.26149 23.9999
rfemur -65.7634 -11.9208 24.2576
rtibia 64.6545
rfoot -14.0626 -10.026
rtoes -25.0648
lfemur -80.5508 7.9333 -28.6472
ltibia 106.901
lfoot -7.20086 -12.4495
ltoes -1.97057
99
root 7.74093 25.6823 0.400695 -187.053 -39.3969 195.304
lowerback 35.5892 -0.115908 5.62896
upperback 7.58765 0.547844 5.0403
thorax -9.31739 -0.671403 2.33604
lowerneck -9.11998 -6.17287 -8.17166
upperneck 15.0316 -8.24235 5.23825
head 6.63343 -4.10132 2.27957
rclavicle 2.73329e-015 5.46658e-015
rhumerus -19.31 -1.75843 -56.8362
rradius 49.8017
rwrist 2.48107
rhand -24.7653 -0.218756
rfingers 7.12502
rthumb 1.73828 -30.1914
lclavicle 2.73329e-015 5.46658e-015
lhumerus -32.4358 18.5767 52.3956
lradius 57.0632
lwrist 18.002
lhand -23.4907 -5.37165
lfingers 7.12502
lthumb 2.96919 24.5874
rfemur -65.2788 -11.6385 23.8484
rtibia 64.3714
rfoot -14.096 -10.2524
rtoes -24.9006
lfemur -81.3739 7.84705 -29.0315
ltibia 104.236
lfoot -7.60629 -13.393
ltoes -2.12501
100
root 7.64376 25.6432 0.015239 -186.853 -39.5637 195.315
lowerback 35.7216 0.0158867 5.7677
upperback 7.59392 0.767078 4.94555
thorax -9.35159 -0.571139 2.07974
lowerneck -9.04972 -6.3379 -8.28693
upperneck 14.7108 -8.44738 5.37825
head 6.54474 -4.19031 2.32733
rclavicle 2.21645e-014 -3.22031e-014
rhumerus -20.2318 -1.71579 -55.3658
rradius 51.3892
rwrist 2.04126
rhand -25.2739 -0.623562
rfingers 7.12502
rthumb 1.24703 -30.5997
lclavicle 2.21645e-014 -3.22031e-014
lhumerus -34.1037 18.7685 50.2379
lradius 58.1029
lwrist 18.9925
lhand -23.6974 -4.86653
lfingers 7.12502
lthumb 2.76962 25.0952
rfemur -64.8111 -11.3484 23.5046
rtibia 64.0299
rfoot -14.1071 -10.4936
rtoes -24.7476
lfemur -81.989 7.85094 -29.3003
ltibia 101.425
lfoot -7.90386 -14.3533
ltoes -2.15508
101
root 7.5442 25.5914 -0.370903 -186.659 -39.721 195.349
lowerback 35.7715 0.136321 5.94183
upperback 7.58691 0.984791 4.83935
thorax -9.36661 -0.468774 1.79155
lowerneck -8.95915 -6.49709 -8.36156
upperneck 14.4162 -8.65602 5.52114
head 6.46012 -4.28027 2.36963
rclavicle -2.18663e-015 -4.03533e-014
rhumerus -21.1393 -1.76841 -53.7677
rradius 52.8945
rwrist 1.49643
rhand -25.7333 -1.08709
rfingers 7.12502
rthumb 0.803306 -31.0653
lclavicle -2.18663e-015 -4.03533e-014
lhumerus -35.6614 18.8556 47.9121
lradius 58.7931
lwrist 19.0476
lhand -23.8275 -4.41676
lfingers 7.12502
lthumb 2.64394 25.5466
rfemur -64.3545 -11.0912 23.207
rtibia 63.6305
rfoot -14.0638 -10.7379
rtoes -24.5733
lfemur -82.3895 7.90232 -29.4751
ltibia 98.4897
lfoot -8.06174 -15.2746
ltoes -2.20949
102
root 7.44228 25.5273 -0.757744 -186.482 -39.8906 195.399
lowerback 35.7402 0.237466 6.14037
upperback 7.57459 1.18523 4.72987
thorax -9.35468 -0.371965 1.49251
lowerneck -8.86158 -6.64464 -8.41722
upperneck 14.1519 -8.85555 5.66575
head 6.38307 -4.36603 2.41038
rclavicle -3.83654e-014 -5.1684e-015
rhumerus -21.9985 -1.86978 -52.0483
rradius 54.2827
rwrist 0.879745
rhand -26.1262 -1.57513
rfingers 7.12502
rthumb 0.423881 -31.5545
lclavicle -3.83654e-014 -5.1684e-015
lhumerus -37.1073 18.8432 45.4511
lradius 59.1513
lwrist 18.4266
lhand -23.9254 -4.00878
lfingers 7.12502
lthumb 2.54936 25.9557
rfemur -63.8893 -10.8922 22.9443
rtibia 63.17
rfoot -13.9158 -10.9825
rtoes -24.3498
lfemur -82.5591 7.9672 -29.5544
ltibia 95.4511
lfoot -8.03595 -16.1479
ltoes -2.33851
103
root 7.33813 25.4517 -1.14506 -186.323 -40.0923 195.443
lowerback 35.632 0.31587 6.33927
upperback 7.56254 1.35449 4.6244
thorax -9.3128 -0.287021 1.20873
lowerneck -8.75493 -6.77877 -8.46899
upperneck 13.9156 -9.04026 5.80587
head 6.31236 -4.44607 2.45065
rclavicle 8.21975e-014 -6.82328e-014
rhumerus -22.7941 -1.97796 -50.2183
rradius 55.5437
rwrist 0.252279
rhand -26.4419 -2.0625
rfingers 7.12502
rthumb 0.118983 -32.0422
lclavicle 8.21975e-014 -6.82328e-014
lhumerus -38.4709 18.7089 42.8906
lradius 59.2498
lwrist 17.4662
lhand -24.0244 -3.60789
lfingers 7.12502
lthumb 2.45382 26.3577
rfemur -63.3957 -10.7739 22.6949
rtibia 62.644
rfoot -13.634 -11.2221
rtoes -24.0978
lfemur -82.4782 8.0181 -29.5469
ltibia 92.3208
lfoot -7.77536 -16.9436
ltoes -2.56877
104
root 7.23178 25.3644 -1.53319 -186.182 -40.3363 195.468
lowerback 35.449 0.370245 6.51058
upperback 7.55708 1.47999 4.53566
thorax -9.23731 -0.219809 0.973446
lowerneck -8.64136 -6.8951 -8.54596
upperneck 13.7085 -9.19937 5.93781
head 6.24915 -4.51678 2.49478
rclavicle 6.70898e-015 3.43152e-014
rhumerus -23.4945 -2.03567 -48.2885
rradius 56.6695
rwrist -0.329948
rhand -26.6982 -2.52633
rfingers 7.12502
rthumb -0.128641 -32.506
lclavicle 6.70898e-015 3.43152e-014
lhumerus -39.7849 18.4796 40.2581
lradius 59.1411
lwrist 16.4935
lhand -24.1253 -3.19942
lfingers 7.12502
lthumb 2.35634 26.7673
rfemur -62.8613 -10.7417 22.4408
rtibia 62.0504
rfoot -13.202 -11.4501
rtoes -23.8011
lfemur -82.1447 8.02833 -29.4457
ltibia 89.1196
lfoot -7.24746 -17.6647
ltoes -2.99629
105
root 7.12299 25.2657 -1.9222 -186.044 -40.6319 195.442
lowerback 35.1931 0.402825 6.63251
upperback 7.5562 1.55767 4.46043
thorax -9.13293 -0.171417 0.796017
lowerneck -8.51326 -6.99716 -8.64364
upperneck 13.5373 -9.338 6.04871
head 6.19367 -4.58138 2.53766
rclavicle 5.69518e-014 5.2181e-015
rhumerus -24.1044 -2.00631 -46.2728
rradius 57.6665
rwrist -0.821674
rhand -26.9058 -2.95015
rfingers 7.12502
rthumb -0.329141 -32.9296
lclavicle 5.69518e-014 5.2181e-015
lhumerus -41.0506 18.1477 37.5936
lradius 58.8725
lwrist 15.7425
lhand -24.2144 -2.78513
lfingers 7.12502
lthumb 2.27029 27.1825
rfemur -62.2768 -10.8016 22.1495
rtibia 61.3881
rfoot -12.6122 -11.6537
rtoes -23.4478
lfemur -81.5526 7.96715 -29.2587
ltibia 85.8643
lfoot -6.44931 -18.2919
ltoes -3.65307
